<svg xmlns="http://www.w3.org/2000/svg" xmlns:xlink="http://www.w3.org/1999/xlink" viewBox="0 0 273.09 199.21"><defs><style>.cls-1{fill:#020202;}.cls-2{fill:#fbfbfb;}.cls-3{fill:url(#未命名漸層_7);}.cls-4{fill:url(#未命名漸層_7-2);}.cls-5{fill:url(#未命名漸層_7-3);}.cls-6{fill:url(#未命名漸層_7-4);}.cls-7{fill:url(#未命名漸層_7-5);}.cls-8{fill:url(#未命名漸層_7-6);}.cls-9{fill:url(#未命名漸層_7-7);}.cls-10{fill:url(#未命名漸層_7-8);}.cls-11{fill:url(#未命名漸層_7-9);}.cls-12{fill:#bbb;}</style><linearGradient id="未命名漸層_7" x1="128.05" y1="183.51" x2="128.11" y2="183.51" gradientUnits="userSpaceOnUse"><stop offset="0" stop-color="#fabe00"/><stop offset="1" stop-color="#f35d4d"/></linearGradient><linearGradient id="未命名漸層_7-2" x1="218.3" y1="130.31" x2="218.56" y2="130.31" xlink:href="#未命名漸層_7"/><linearGradient id="未命名漸層_7-3" x1="128.05" y1="183.51" x2="128.09" y2="183.51" xlink:href="#未命名漸層_7"/><linearGradient id="未命名漸層_7-4" x1="0" y1="92.02" x2="272.45" y2="92.02" xlink:href="#未命名漸層_7"/><linearGradient id="未命名漸層_7-5" x1="271.6" y1="98.92" x2="272.58" y2="98.92" xlink:href="#未命名漸層_7"/><linearGradient id="未命名漸層_7-6" x1="126.99" y1="184.1" x2="127.28" y2="184.1" xlink:href="#未命名漸層_7"/><linearGradient id="未命名漸層_7-7" x1="128.09" y1="183.51" x2="128.11" y2="183.51" xlink:href="#未命名漸層_7"/><linearGradient id="未命名漸層_7-8" x1="179.39" y1="129.32" x2="206.19" y2="129.32" xlink:href="#未命名漸層_7"/><linearGradient id="未命名漸層_7-9" x1="127.1" y1="146.17" x2="273.09" y2="146.17" xlink:href="#未命名漸層_7"/></defs><g id="圖層_2" data-name="圖層 2"><g id="圖層_1-2" data-name="圖層 1"><polygon class="cls-1" points="150.92 48.01 255.88 55.02 272.45 97.88 227.24 186.89 126.99 184.16 115.14 175.93 133.09 156.97 150.92 48.01"/><path class="cls-2" d="M202.89,131.87c-7.47-4.39-15.11-8.49-22.72-12.65-.1-.06-.35.12-.78.3.43,3,2.31,4.85,4.77,6.24,1.64.92,1.83,1.93,1.21,3.65-1.12,3.05-1.92,6.23-3,9.73a13,13,0,0,0,1.95.28c5.53-.66,11.07-1.29,16.59-2,1.77-.24,3.5-.75,5.25-1.13C205.11,134.78,204.35,132.73,202.89,131.87Zm0,0c-7.47-4.39-15.11-8.49-22.72-12.65-.1-.06-.35.12-.78.3.43,3,2.31,4.85,4.77,6.24,1.64.92,1.83,1.93,1.21,3.65-1.12,3.05-1.92,6.23-3,9.73a13,13,0,0,0,1.95.28c5.53-.66,11.07-1.29,16.59-2,1.77-.24,3.5-.75,5.25-1.13C205.11,134.78,204.35,132.73,202.89,131.87Zm0,0c-7.47-4.39-15.11-8.49-22.72-12.65-.1-.06-.35.12-.78.3.43,3,2.31,4.85,4.77,6.24,1.64.92,1.83,1.93,1.21,3.65-1.12,3.05-1.92,6.23-3,9.73a13,13,0,0,0,1.95.28c5.53-.66,11.07-1.29,16.59-2,1.77-.24,3.5-.75,5.25-1.13C205.11,134.78,204.35,132.73,202.89,131.87Zm69.56-34v0l0,.37.24-.48Zm-69.56,34c-7.47-4.39-15.11-8.49-22.72-12.65-.1-.06-.35.12-.78.3.43,3,2.31,4.85,4.77,6.24,1.64.92,1.83,1.93,1.21,3.65-1.12,3.05-1.92,6.23-3,9.73a13,13,0,0,0,1.95.28c5.53-.66,11.07-1.29,16.59-2,1.77-.24,3.5-.75,5.25-1.13C205.11,134.78,204.35,132.73,202.89,131.87Zm0,0c-7.47-4.39-15.11-8.49-22.72-12.65-.1-.06-.35.12-.78.3.43,3,2.31,4.85,4.77,6.24,1.64.92,1.83,1.93,1.21,3.65-1.12,3.05-1.92,6.23-3,9.73a13,13,0,0,0,1.95.28c5.53-.66,11.07-1.29,16.59-2,1.77-.24,3.5-.75,5.25-1.13C205.11,134.78,204.35,132.73,202.89,131.87Z"/><polygon class="cls-3" points="128.11 183.5 128.09 183.51 128.05 183.53 128.06 183.51 128.09 183.5 128.11 183.5"/><path class="cls-4" d="M218.56,130.61c-.08-.21-.17-.42-.26-.61h0C218.39,130.19,218.48,130.4,218.56,130.61Z"/><polygon class="cls-5" points="128.09 183.5 128.09 183.51 128.05 183.53 128.06 183.51 128.09 183.5"/><path class="cls-6" d="M272.22,96.07a89.42,89.42,0,0,0-12.54-35.38A101.51,101.51,0,0,0,244,41.28c-12.15-11.77-26.57-19.15-42.89-22.94-15.48-3.59-31.18-3.76-46.9-3.65-12.86.09-25.71.73-38.51-1.57-9-1.6-17.12-4.63-23.52-11.44C91.52,1,90.93-.48,89.83.15s-.24,1.91,0,2.83a26.82,26.82,0,0,0,4,9.29,54.26,54.26,0,0,0,16.55,15c2.5,1.52,4.94,3.12,7.41,4.69-11.77-1.82-23.43-1.28-35.08-.39-9.16.73-18.31,1.75-27.53,1.94-10.84.24-21.5-.88-31.73-4.75A57,57,0,0,1,2.26,14.22c-.49-.5-1-1.52-1.81-1.13S.23,14.44.39,15.14c2.23,9.16,5.34,18,10.32,26.1A62.71,62.71,0,0,0,38.14,65.81a69.94,69.94,0,0,0,18.64,5.56c3.21.52,6.06,1.78,7.87,4.72S66,81.62,63.2,83.57c-3.39,2.29-7.12,1.87-10.85,1.17-7.27-1.32-13.61-5.1-20.3-7.88-.68-.29-1.47-1-2.11-.32s.11,1.4.47,2c4.35,7.72,10.52,13.76,17.79,18.78C59,104.8,71.08,109.24,83.53,112.81a115,115,0,0,1,16.5,5.65,53.79,53.79,0,0,1,21.1,16.66,100.88,100.88,0,0,1,12,21.84c-22-6.38-39-19.22-53.46-36a2.66,2.66,0,0,0-.25,2.82,117.64,117.64,0,0,0,6.36,17.39,89.93,89.93,0,0,0,26.92,33.58A112.63,112.63,0,0,0,126.78,184c.21-1.06.34-1.85.56-2.62a37.83,37.83,0,0,1,10.81-18.09c3.76-3.4,7.65-6.66,11.58-9.88,3.67-3,7.52-5.83,11.21-8.87,5.31-4.36,6.5-10.77,8-16.94,2.88-12.17,6.28-24.07,15.05-33.55a40.78,40.78,0,0,1,5.91-5.32c4.61-3.36,9.28-6.67,14.14-9.64,3.2-2,6.63-4.72,10.65-.49A15.68,15.68,0,0,0,199,64.53c-6.74.13-13.47,1.31-20.19,2.12-4.68.56-9.24.69-13.89-2.33,6.34-.1,11.42-2.1,16.69-4.55,11-5.11,22.67-7,34.23-1.91a26.29,26.29,0,0,1,13.43,13.87c3.34,7.57,6.46,15.23,9.86,22.76,2.94,6.52,10,10,17.61,8.33,5.43-1.24,10.65-3.33,15.72-5C272.38,97.26,272.3,96.67,272.22,96.07Zm-15-28.14c-1.42,6.57-8.36,12.26-15.13,12.38-4.12.09-6-2.41-6.06-7.85-.79-6.24,6.73-13.33,11-14.52C253.71,56.09,258.72,61,257.23,67.93Z"/><path class="cls-7" d="M272.58,99l-1,.57c.14-.16.27-.35.39-.51a6.52,6.52,0,0,0,.5-.83Z"/><path class="cls-8" d="M127.28,184a1.74,1.74,0,0,1-.18.22l-.11-.05Z"/><polygon class="cls-9" points="128.11 183.5 128.09 183.51 128.09 183.5 128.11 183.5"/><path class="cls-10" d="M206.19,136.28c-1.75.38-3.48.89-5.25,1.13-5.52.72-11.06,1.35-16.59,2a13,13,0,0,1-1.95-.28c1-3.5,1.85-6.68,3-9.73.62-1.72.43-2.73-1.21-3.65-2.46-1.39-4.34-3.28-4.77-6.24.43-.18.68-.36.78-.3,7.61,4.16,15.25,8.26,22.72,12.65C204.35,132.73,205.11,134.78,206.19,136.28Z"/><path class="cls-11" d="M272.58,99l-1,.57a29.11,29.11,0,0,1-20.56,12,8,8,0,0,1-1.11.1h-.2a5.3,5.3,0,0,1-.57,0h-.09c-.84,0-1.69,0-2.54,0a2.17,2.17,0,0,1-.36,0l-.36,0c-.48,0-.95-.07-1.44-.14s-1-.13-1.56-.23-1-.19-1.56-.3c-6.52-1.45-10.52-5.69-13-11.55-.33-.79.35-2.24.92-3.16s1.71-1.83,2.27-3.19c-12.48,2.8-24.07,7.27-34.18,16.17,1.24.7,2.24,1.32,3.28,1.87a42.89,42.89,0,0,1,5.85,3.69,29.67,29.67,0,0,1,2.4,1.92c.17.14.35.29.53.47s.58.53.88.81.64.63.94,1,.59.61.88.95a3.84,3.84,0,0,1,.27.29c.34.39.67.78,1,1.18s.51.66.75,1c.4.53.79,1.09,1.15,1.66a12.63,12.63,0,0,1,.84,1.35s0,0,0,.07a11.8,11.8,0,0,1,.67,1.2,1.41,1.41,0,0,1,.17.32,4.37,4.37,0,0,1,.35.68,5.46,5.46,0,0,1,.34.74,5.34,5.34,0,0,1,.35.77.35.35,0,0,1,.1.2,2.14,2.14,0,0,1,.18.44.67.67,0,0,1,.06.12s0,0,0,0h0c.08.19.17.4.25.61a1.73,1.73,0,0,1,.1.24,18.18,18.18,0,0,1,1,3.33c1.19,7.81-3.16,12.46-12.34,12.52-5.25,0-10.52-.14-15.78-.29l-.86,0h-.06c-3.9-.1-7.79-.2-11.69-.17-3.56,0-7.11,1.06-10.68,1.63l.12,1,8.63.91c0,.25,0,.51,0,.78-.83.44-1.65.9-2.49,1.32q-14.5,7.32-29,14.61C137.77,170.3,132.83,177,127.3,184l0,0a1.74,1.74,0,0,1-.18.22,130.63,130.63,0,0,0,32.69,12.41,89.14,89.14,0,0,0,40.12.59,92.76,92.76,0,0,0,43.21-21.79c13.69-12.34,22.44-27.48,27.13-45.07A85.29,85.29,0,0,0,272.58,99ZM128.09,183.51l0,0v0h0Z"/><polygon class="cls-12" points="169.37 174 169.36 174.01 169.31 174.02 169.33 174.01 169.36 174 169.37 174"/><path class="cls-12" d="M168.55,174.48c-.06.07-.11.16-.18.23l0,0-.07-.1Z"/><polygon class="cls-12" points="112.84 156.32 112.83 156.33 112.78 156.34 112.8 156.33 112.83 156.32 112.84 156.32"/><path class="cls-12" d="M112,156.8c-.06.07-.11.16-.18.23s0,0,0,0l-.07-.1Z"/></g></g></svg>